<svg width="50" height="50" viewBox="0 0 50 50" fill="none" xmlns="http://www.w3.org/2000/svg">
<g clip-path="url(#clip0_9_176)">
<circle cx="24.8" cy="25" r="24.375" fill="#2BA3D7"/>
<mask id="mask0_9_176" style="mask-type:luminance" maskUnits="userSpaceOnUse" x="0" y="0" width="50" height="50">
<path d="M0.425049 0.625H49.175V49.375H0.425049V0.625Z" fill="white"/>
</mask>
<g mask="url(#mask0_9_176)">
<path fill-rule="evenodd" clip-rule="evenodd" d="M49.175 25C49.175 38.4611 38.2611 49.375 24.8 49.375C11.339 49.375 0.425049 38.4611 0.425049 25C0.425049 11.5389 11.339 0.625 24.8 0.625C38.2611 0.625 49.175 11.5389 49.175 25ZM25.6735 18.6198C23.3037 19.6057 18.5655 21.6464 11.4588 24.742C10.305 25.2011 9.70041 25.65 9.64489 26.0888C9.55146 26.8322 10.4818 27.1247 11.7452 27.5208L12.2794 27.6914C13.5246 28.0956 15.1983 28.5689 16.0677 28.5872C16.8572 28.6034 17.7387 28.2784 18.7124 27.6122C25.3505 23.1299 28.7772 20.8644 28.9925 20.8156C29.1449 20.7811 29.3561 20.7364 29.4983 20.8644C29.6405 20.9903 29.6263 21.23 29.6121 21.295C29.5186 21.687 25.8746 25.0772 23.9855 26.8322C23.3965 27.3786 22.98 27.7666 22.8947 27.8559C22.7011 28.0523 22.5102 28.2412 22.3219 28.4227C21.1641 29.5358 20.2988 30.3727 22.3707 31.7377C23.366 32.3938 24.1622 32.9361 24.9565 33.4764C25.8238 34.0675 26.6891 34.6566 27.8104 35.3919C28.0947 35.5815 28.369 35.771 28.633 35.9606C29.6425 36.6817 30.5505 37.3277 31.6718 37.2261C32.3218 37.1652 32.9961 36.5537 33.3374 34.7277C34.1438 30.4092 35.7322 21.0573 36.0999 17.202C36.1243 16.882 36.1106 16.5601 36.0593 16.2433C36.0309 15.9868 35.906 15.7508 35.7099 15.5831C35.4194 15.3455 34.9685 15.2947 34.7654 15.2987C33.8493 15.315 32.4436 15.8045 25.6735 18.6198Z" fill="white"/>
</g>
</g>
<defs>
<clipPath id="clip0_9_176">
<rect width="48.75" height="48.75" fill="white" transform="translate(0.425049 0.625)"/>
</clipPath>
</defs>
</svg>
